<?xml version="1.0" encoding="utf-8"?>
<!-- Generator: Adobe Illustrator 23.0.5, SVG Export Plug-In . SVG Version: 6.00 Build 0)  -->
<svg version="1.1" id="Capa_1" xmlns="http://www.w3.org/2000/svg" xmlns:xlink="http://www.w3.org/1999/xlink" x="0px" y="0px"
	 viewBox="0 0 100 100" style="enable-background:new 0 0 100 100;" xml:space="preserve">
<style type="text/css">
	.st0{fill:#FFFFFF;}
</style>
<g id="kOFMvQ_1_">
	<g>
		<path class="st0" d="M94.81,90.9c-27.97,0-55.94,0-83.91,0c0-27.97,0-55.94,0-83.91c27.97,0,55.94,0,83.91,0
			C94.81,34.95,94.81,62.93,94.81,90.9z M20.18,48.83c-0.1,0-0.2,0-0.3,0c0,2.86-0.04,5.72,0.01,8.58c0.05,2.92,0.12,5.84,0.3,8.75
			c0.52,8.35,7.05,15.17,15.38,15.38c11.48,0.29,22.97,0.29,34.45,0.01c8.44-0.2,15.22-6.98,15.43-15.46
			c0.29-11.42,0.29-22.85,0-34.27c-0.21-8.5-6.94-15.26-15.41-15.47c-11.48-0.3-22.97-0.29-34.45,0
			c-8.36,0.22-14.98,7.01-15.36,15.36C19.98,37.4,20.18,43.12,20.18,48.83z"/>
		<path d="M20.18,48.83c0-5.71-0.21-11.43,0.05-17.13c0.38-8.34,7-15.14,15.36-15.36c11.48-0.3,22.98-0.3,34.45,0
			c8.47,0.22,15.2,6.98,15.41,15.47c0.29,11.42,0.29,22.85,0,34.27c-0.21,8.48-6.99,15.26-15.43,15.46
			c-11.48,0.28-22.98,0.28-34.45-0.01c-8.33-0.21-14.85-7.03-15.38-15.38c-0.18-2.91-0.25-5.83-0.3-8.75
			c-0.05-2.86-0.01-5.72-0.01-8.58C19.98,48.83,20.08,48.83,20.18,48.83z M81.31,61.13c0-9.39,0.07-18.27-0.05-27.15
			c-0.03-2-0.45-4.11-1.21-5.97c-2.24-5.48-6.9-7.43-12.4-7.5c-9.88-0.12-19.76-0.1-29.64,0c-3.94,0.04-7.6,1.1-10.37,4.22
			c-2.5,2.82-3.21,6.27-3.24,9.86c-0.07,9.51-0.03,19.01-0.02,28.52c0,0.53,0.09,1.06,0.17,1.87c0.62-0.56,1.03-0.9,1.41-1.27
			c2.71-2.65,5.41-5.31,8.13-7.95c1.7-1.66,2.49-1.69,4.32-0.23c2.22,1.77,4.44,3.55,6.86,5.48c0.38-0.48,0.66-0.88,0.98-1.26
			c4.02-4.82,8.05-9.62,12.06-14.44c1.88-2.25,2.73-2.34,4.86-0.43c2.86,2.57,5.72,5.15,8.59,7.72
			C74.84,55.36,77.93,58.11,81.31,61.13z M61.07,49c-4.43,5.27-8.77,10.44-13.11,15.62c-1.78,2.12-2.59,2.21-4.78,0.47
			c-2.22-1.78-4.43-3.56-6.71-5.39c-3.53,3.67-6.96,7.24-10.58,11c0.57,0.76,1.27,1.86,2.14,2.8c2.83,3.06,6.58,3.84,10.51,3.88
			c8.63,0.09,17.26,0.07,25.89,0.04c2.04-0.01,4.09-0.15,6.12-0.37c4.79-0.52,8.83-4.08,10.1-8.69c0.3-1.1,0.15-1.8-0.75-2.55
			c-2.19-1.83-4.27-3.79-6.4-5.69C69.39,56.45,65.28,52.77,61.07,49z"/>
		<path class="st0" d="M81.31,61.13c-3.38-3.02-6.47-5.77-9.55-8.53c-2.87-2.57-5.73-5.15-8.59-7.72c-2.13-1.91-2.99-1.83-4.86,0.43
			c-4.01,4.82-8.04,9.63-12.06,14.44c-0.31,0.38-0.6,0.77-0.98,1.26c-2.42-1.93-4.64-3.71-6.86-5.48c-1.83-1.46-2.62-1.43-4.32,0.23
			c-2.72,2.64-5.42,5.3-8.13,7.95c-0.38,0.37-0.79,0.72-1.41,1.27c-0.08-0.81-0.17-1.34-0.17-1.87c-0.01-9.51-0.05-19.01,0.02-28.52
			c0.03-3.59,0.73-7.03,3.24-9.86c2.77-3.12,6.43-4.18,10.37-4.22c9.88-0.1,19.76-0.12,29.64,0c5.5,0.07,10.16,2.02,12.4,7.5
			c0.76,1.85,1.18,3.96,1.21,5.97C81.39,42.86,81.31,51.74,81.31,61.13z M43.78,36.18c-0.01-2.04-1.6-3.69-3.59-3.73
			c-2.01-0.04-3.83,1.75-3.82,3.76c0.01,2.06,1.74,3.69,3.86,3.65C42.33,39.82,43.79,38.31,43.78,36.18z"/>
		<path class="st0" d="M61.07,49c4.21,3.77,8.32,7.45,12.43,11.13c2.13,1.9,4.21,3.86,6.4,5.69c0.9,0.76,1.05,1.46,0.75,2.55
			c-1.27,4.6-5.31,8.17-10.1,8.69c-2.03,0.22-4.08,0.36-6.12,0.37c-8.63,0.03-17.26,0.04-25.89-0.04
			c-3.92-0.04-7.68-0.82-10.51-3.88c-0.87-0.94-1.56-2.04-2.14-2.8c3.62-3.76,7.05-7.33,10.58-11c2.27,1.83,4.49,3.61,6.71,5.39
			c2.19,1.75,3,1.65,4.78-0.47C52.29,59.44,56.64,54.27,61.07,49z"/>
		<path d="M43.78,36.18c0.01,2.13-1.44,3.64-3.55,3.68c-2.13,0.04-3.85-1.59-3.86-3.65c-0.01-2.01,1.81-3.8,3.82-3.76
			C42.18,32.49,43.77,34.14,43.78,36.18z"/>
	</g>
</g>
<g id="kOFMvQ_2_">
	<g>
		<path d="M8.98,56.34c0-5.71-0.21-11.43,0.05-17.13c0.38-8.34,7-15.14,15.36-15.36c11.48-0.3,22.98-0.3,34.45,0
			c8.47,0.22,15.2,6.98,15.41,15.47c0.29,11.42,0.29,22.85,0,34.27c-0.21,8.48-6.99,15.26-15.43,15.46
			c-11.48,0.28-22.98,0.28-34.45-0.01C16.04,88.83,9.52,82,8.99,73.66c-0.18-2.91-0.25-5.83-0.3-8.75
			c-0.05-2.86-0.01-5.72-0.01-8.58C8.78,56.34,8.88,56.34,8.98,56.34z M70.11,68.63c0-9.39,0.07-18.27-0.05-27.15
			c-0.03-2-0.45-4.11-1.21-5.97c-2.24-5.48-6.9-7.43-12.4-7.5c-9.88-0.12-19.76-0.1-29.64,0c-3.94,0.04-7.6,1.1-10.37,4.22
			c-2.5,2.82-3.21,6.27-3.24,9.86c-0.07,9.51-0.03,19.01-0.02,28.52c0,0.53,0.09,1.06,0.17,1.87c0.62-0.56,1.03-0.9,1.41-1.27
			c2.71-2.65,5.41-5.31,8.13-7.95c1.7-1.66,2.49-1.69,4.32-0.23c2.22,1.77,4.44,3.55,6.86,5.48c0.38-0.48,0.66-0.88,0.98-1.26
			c4.02-4.82,8.05-9.62,12.06-14.44c1.88-2.25,2.73-2.34,4.86-0.43c2.86,2.57,5.72,5.15,8.59,7.72
			C63.64,62.87,66.73,65.62,70.11,68.63z M49.86,56.51c-4.43,5.27-8.77,10.44-13.11,15.62c-1.78,2.12-2.59,2.21-4.78,0.47
			c-2.22-1.78-4.43-3.56-6.71-5.39c-3.53,3.67-6.96,7.24-10.58,11c0.57,0.76,1.27,1.86,2.14,2.8c2.83,3.06,6.58,3.84,10.51,3.88
			c8.63,0.09,17.26,0.07,25.89,0.04c2.04-0.01,4.09-0.15,6.12-0.37c4.79-0.52,8.83-4.08,10.1-8.69c0.3-1.1,0.15-1.8-0.75-2.55
			c-2.19-1.83-4.27-3.79-6.4-5.69C58.19,63.95,54.08,60.28,49.86,56.51z"/>
		<path class="st0" d="M70.11,68.63c-3.38-3.02-6.47-5.77-9.55-8.53c-2.87-2.57-5.73-5.15-8.59-7.72c-2.13-1.91-2.99-1.83-4.86,0.43
			c-4.01,4.82-8.04,9.63-12.06,14.44c-0.31,0.38-0.6,0.77-0.98,1.26c-2.42-1.93-4.64-3.71-6.86-5.48c-1.83-1.46-2.62-1.43-4.32,0.23
			c-2.72,2.64-5.42,5.3-8.13,7.95c-0.38,0.37-0.79,0.72-1.41,1.27c-0.08-0.81-0.17-1.34-0.17-1.87c-0.01-9.51-0.05-19.01,0.02-28.52
			c0.03-3.59,0.73-7.03,3.24-9.86c2.77-3.12,6.43-4.18,10.37-4.22c9.88-0.1,19.76-0.12,29.64,0c5.5,0.07,10.16,2.02,12.4,7.5
			c0.76,1.85,1.18,3.96,1.21,5.97C70.18,50.36,70.11,59.25,70.11,68.63z M32.57,43.68c-0.01-2.04-1.6-3.69-3.59-3.73
			c-2.01-0.04-3.83,1.75-3.82,3.76c0.01,2.06,1.74,3.69,3.86,3.65C31.13,47.32,32.58,45.81,32.57,43.68z"/>
		<path class="st0" d="M49.86,56.51c4.21,3.77,8.32,7.45,12.43,11.13c2.13,1.9,4.21,3.86,6.4,5.69c0.9,0.76,1.05,1.46,0.75,2.55
			c-1.27,4.6-5.31,8.17-10.1,8.69c-2.03,0.22-4.08,0.36-6.12,0.37c-8.63,0.03-17.26,0.04-25.89-0.04
			c-3.92-0.04-7.68-0.82-10.51-3.88c-0.87-0.94-1.56-2.04-2.14-2.8c3.62-3.76,7.05-7.33,10.58-11c2.27,1.83,4.49,3.61,6.71,5.39
			c2.19,1.75,3,1.65,4.78-0.47C41.09,66.95,45.44,61.78,49.86,56.51z"/>
		<path d="M32.57,43.68c0.01,2.13-1.44,3.64-3.55,3.68c-2.13,0.04-3.85-1.59-3.86-3.65c-0.01-2.01,1.81-3.8,3.82-3.76
			C30.97,39.99,32.56,41.64,32.57,43.68z"/>
	</g>
</g>
</svg>
